<?xml version="1.0" encoding="UTF-8"?>
<svg xmlns="http://www.w3.org/2000/svg" viewBox="0 0 12000 12004.01">
  <defs>
    <style>
      .cls-1 {
        stroke-linejoin: round;
      }

      .cls-1, .cls-2, .cls-3, .cls-4, .cls-5, .cls-6 {
        fill: none;
      }

      .cls-1, .cls-2, .cls-4, .cls-5, .cls-6 {
        stroke-width: 8px;
      }

      .cls-1, .cls-6 {
        stroke: #ff6961;
      }

      .cls-2 {
        stroke: #85cfd2;
        stroke-miterlimit: 10;
      }

      .cls-3 {
        stroke: #000;
        stroke-width: 4px;
      }

      .cls-4 {
        stroke: #b2e1ad;
      }

      .cls-5 {
        stroke: #f0be7d;
      }
    </style>
  </defs>
  <g id="Border">
    <polygon class="cls-3" points="24.74 11939.5 11975.26 12002 11975.26 2 24.74 2 24.74 11939.5"/>
  </g>
  <g id="Aelio">
    <polygon id="Resol_Forest" data-name="Resol Forest" class="cls-4" points="2900.61 6029.78 2768.66 6196.44 2768.66 6305.82 2843.32 6371.79 2900.61 6371.79 2954.43 6455.12 2977 6552.35 3155.82 6680.82 3246.09 6680.82 3325.95 6720.75 3345.05 6857.9 3381.51 6897.83 3357.2 7010.68 3419.7 7116.58 3673.18 7135.68 3862.41 7172.14 3973.52 7146.1 4275.61 7458.6 4376.3 7458.6 4598.52 7222.49 4661.02 7222.49 4765.19 7153.04 4791.23 7081.86 4905.82 7015.89 4983.94 7036.72 5230.93 6896.39 4997.83 5911.72 4876.3 5781.51 4780.82 5760.68 4655.82 5802.35 4530.82 5760.68 4395.4 5783.25 4339.84 5837.07 4258.25 5804.08 4200.95 5875.26 4126.3 5892.62 4070.75 5875.26 3924.91 6024.57 3921.44 6069.71 3673.18 6059.29 3645.4 6031.51 3602 6033.25 3586.37 6010.68 3527.34 6010.68 3490.89 5923.87 3437.07 5918.67 3400.61 5877 3228.73 5835.33 3136.72 6002 2900.61 6029.78"/>
    <polygon id="Mt_Magnus" data-name="Mt Magnus" class="cls-4" points="3636.72 9448.18 3919.7 9019.46 3977 9019.46 4003.04 9000.26 4095.05 9019.36 4258.25 8918.67 4284.29 8866.58 4629.77 8567.97 4742.62 8567.97 4831.16 8534.99 4911.02 8538.46 4964.84 8515.89 5079.43 8552.35 5364.15 8526.31 5421.44 8526.31 5438.8 8578.39 5489.15 8618.32 5586.37 8831.86 5725.26 8982.03 5858.94 9003.74 5917.97 9118.32 6284.29 9040.19 6263.45 9125.26 6242.62 9342.28 6195.75 9432.56 6251.3 9540.19 6253.04 9722.49 6317.27 9837.07 6352 10323.18 6145.4 10514.15 6082.9 10528.04 5975.26 10651.31 5884.98 10659.99 5867.62 10703.39 5700.95 10758.94 5572.48 10757.21 5332.9 10590.54 5339.84 10512.42 5265.19 10517.63 5117.62 10460.33 5055.12 10486.38 4987.41 10406.51 4884.98 10345.75 4852 10370.06 4801.65 10295.4 4874.57 10236.38 4753.04 10100.96 4389.32 10000.26 4079.43 9666.93 4042.97 9567.97 3985.68 9462.07 3725.26 9456.86 3683.59 9493.32 3636.72 9448.18"/>
    <polyline id="Vanford_Lab" data-name="Vanford Lab" class="cls-4" points="6466.58 8778.04 6306.86 8877 6284.29 9040.19 5917.97 9118.32 5858.94 9003.74 5725.26 8982.03 5586.37 8831.86 5489.15 8618.32 5438.8 8578.39 5421.44 8526.31 5643.66 8215.54 5759.98 8186.03 5831.16 8076.65 5911.02 7677.35 5964.84 7677.35 6072.48 7604.43 6086.37 7573.18 6164.5 7529.78 6270.4 7507.21 6497.83 7576.65 6586.37 7592.28 6588.11 7567.97 6664.5 7564.5 6732.2 7500.26 6871.09 7677.35 6895.4 7653.04 6950.95 7653.04 6950.95 7795.4 6975.26 8109.64 6673.18 8661.72 6466.58 8778.04"/>
    <polyline id="Halpha_Lake" data-name="Halpha Lake" class="cls-4" points="6286.02 7128.74 6145.4 7132.21 6133.25 7189.5 6067.27 7219.01 5919.7 7350.96 5895.4 7505.47 5822.48 7545.4 5733.94 7526.31 5669.7 7415.19 5612.41 7401.31 5577.69 7392.62 5565.54 7361.37 5466.58 7324.92 5426.65 7267.62 5364.15 7133.94 5284.29 7125.26 5020.4 5993.32 4997.83 5911.72 5235.68 5831.86 5322.48 5868.32 5398.87 5816.24 5388.45 5715.54 5416.23 5689.5 5405.82 5618.32 5466.58 5495.06 5605.47 5427.35 5497.83 5281.51 5610.68 5043.67 5827.69 5010.68 6095.05 5038.46 6336.37 5118.32 6468.32 5219.01 6549.91 5232.9 6577.69 5269.36 6532.55 5363.11 6575.95 5416.93 6669.7 5439.5 6711.37 5489.85 6786.02 5489.85 6824.22 5522.83 6824.22 5890.89 6739.15 5981.17 6770.4 6278.04 6666.23 6429.08 6770.4 6762.42 6610.68 6995.06 6286.02 7128.74"/>
    <polygon id="Central_City" data-name="Central City" class="cls-4" points="3324.25 8274 3233.59 8515.89 3414.92 8866 3624.57 8946 3756.25 8892.67 3793.59 8759.33 3857.59 8786 3999.8 8385.68 3636.72 8220.67 3580.25 8252.67 3489.59 8220.67 3324.25 8274"/>
    <polygon id="North_Aelio" data-name="North Aelio" class="cls-4" points="2603.73 6135.68 2640.19 6170.4 2661.02 6333.6 2867.62 6534.99 2904.08 6666.93 2879.77 6889.15 3081.16 7225.96 2989.15 7399.57 2944.01 7423.87 2867.62 7588.81 2820.75 7701.65 2758.25 7734.64 2674.91 7850.96 2522.14 7955.12 2433.59 7955.12 2133.25 8040.19 1805.12 8024.57 1707.9 7974.22 1671.44 7904.78 1475.26 7939.5 1393.66 7859.64 1371.09 7753.74 1289.5 7552.35 1320.75 7470.75 1445.75 7392.62 1447.48 7297.14 1490.89 7262.42 1490.89 7106.17 1438.8 7010.68 1402.34 6986.37 1346.79 6863.11 1367.62 6764.15 1289.5 6724.22 1176.65 6321.44 1164.5 6061.03 1190.54 5988.11 1244.36 6002 1301.65 5934.29 1270.4 5896.1 1459.64 5698.18 1534.29 5760.68 1581.16 5739.85 1549.91 5684.29 1589.84 5587.07 1643.66 5562.76 1699.22 5576.65 1742.62 5644.36 1838.11 5606.17 2030.82 5653.04 2138.45 5745.06 2194.01 5823.18 2263.45 5875.26 2265.19 5944.71 2381.51 6059.29 2433.59 6078.39 2442.27 6158.25 2483.94 6187.76 2603.73 6135.68"/>
    <polygon id="South_Aelio" data-name="South Aelio" class="cls-4" points="6145.4 10514.15 6082.9 10528.04 5975.26 10651.31 5884.98 10659.99 5867.62 10703.39 5700.95 10758.94 5572.48 10757.21 5477 10682.56 5383.25 10635.68 5332.9 10590.54 5339.84 10512.42 5265.19 10517.63 5117.62 10460.33 5055.12 10486.38 4987.41 10406.51 4884.98 10345.75 4852 10370.06 4801.65 10295.4 4874.57 10236.38 4753.04 10100.96 4389.32 10000.26 4079.43 9666.93 4042.97 9567.97 3985.68 9462.07 3725.26 9456.86 3683.59 9493.32 3636.72 9448.18 3574.22 9408.25 3503.04 9422.14 3400.61 9524.57 3325.95 9566.24 3213.11 9545.4 3161.02 9607.9 2945.75 9632.21 2876.3 9611.37 2766.93 9604.43 2673.18 9746.79 2735.68 9923.87 2669.7 10102.69 2678.39 10317.97 2633.25 10469.01 2662.76 10713.81 2766.93 10967.28 2730.47 11007.21 2756.51 11078.39 2766.93 11210.33 3023.87 11436.03 3023.87 11491.58 3430.99 11455.13 3618.49 11278.04 3636.72 11319.71 3686.2 11324.92 3686.2 11465.54 3842.45 11655.65 4035.16 11655.65 4240.89 11887.42 5220.05 11887.42 5363.28 11791.06 5605.47 11650.44 5858.07 11390.02 5860.68 11069.71 5805.99 10923.88 5735.68 10884.81 5759.11 10858.77 5891.93 10835.33 5975.26 10877 6251.3 10731.17 6251.3 10647.83 6266.93 10587.94 6186.2 10598.35 6145.4 10514.15"/>
    <path id="West_Aelio" data-name="West Aelio" class="cls-4" d="m839.84,10988.98l-36.46,41.67-184.9,7.81-106.77,62.5-44.27,78.12-114.58,33.85s-143.23,169.27-148.44,179.69c-5.21,10.42-5.21,138.02-5.21,138.02l-109.38,257.81-20.83,127.6,127.6,23.44,210.94-52.08,59.9-65.1h210.94l153.65-158.85v-101.56l114.58-149.74,401.04,33.85,333.33-128.91,255.21,263.02h322.92l85.94-67.71,205.73,26.04,315.1,41.67,157.99-88.54v-55.56l-256.94-225.69-10.42-131.94-26.04-71.18,36.46-39.93-69.44-130.21-34.72-123.26-29.51-244.79,45.14-151.04-8.68-215.28,65.97-178.82-62.5-177.08-81.6,109.38h-170.14l-95.49-154.51-92.01,17.36v-60.76l-97.22-57.29v-85.07l86.81-32.99,5.21-50.35-50.35-20.83-105.9-97.22-93.75,140.63-76.39,13.89-98.96-67.71-46.88-149.31-111.11-85.07v-38.19l38.19-12.15,123.26-232.64-50.35-72.92,3.47-83.33-67.71,46.87-57.29-6.94-46.88-65.97-32.99,36.46-163.19,10.42-29.51-203.12,24.31-72.92-85.07-59.03-46.87-149.31,67.71-3.47,45.14-97.22,36.46-8.68,13.89-62.5,86.81-52.08-29.51-100.69-81.6-79.86-22.57-105.9-81.6-201.39,31.25-81.6,125-78.12,1.74-95.49,43.4-34.72v-156.25l-52.08-95.49-36.46-24.31-55.56-123.26,20.83-98.96-78.12-39.93-112.85-402.78-12.15-260.42-26.04-109.37-79.86-57.29s-128.47,26.04-131.94,31.25l-34.72,53.82-125,22.57-101.56,239.58-164.06,46.88-93.75,85.94-135.42,49.48-62.5,70.31,10.42,234.38,44.27,106.77-44.27-13.02-101.56,46.87,39.06,41.67h83.33l106.77,20.83,111.98,106.77,49.48,140.62-39.06,93.75-153.65,13.02-31.25,91.15,26.04,81.6,83.33,19.97,104.17,83.33-7.81,114.58-15.62,41.67,2.6,199.65-65.1,65.97-14.32,72.92-37.76,46.88-57.29,6.51-26.04-45.57-62.5-61.2,13.02-29.95-28.65-31.25-83.33,10.42-28.65,33.85,57.29,26.04,3.91,126.3,14.32,45.57,143.23-7.81,5.21,106.77,62.5,70.31-2.6,151.04-44.27,31.25-41.67-19.97H89.84l-49.48,40.8-15.62,153.65,57.29,111.98,10.42,140.62,140.63,117.19,140.62-2.6,52.08,59.9-13.02,223.96,49.48,78.12,72.92,33.85,57.29,52.08,39.06,151.04-54.69,80.73-72.92,36.46-70.31,143.23-36.46,153.65,52.08,88.54,192.71,125,138.02,234.38,49.48,2.6,43.4,287.33-32.99,160.59Z"/>
    <path id="Central_Aelio" data-name="Central Aelio" class="cls-4" d="m6286.02,7128.74l-140.62,3.47-11.85,55.88-69.27,33.6-144.57,129.27-24.31,154.51-72.92,39.93-88.54-19.1-64.24-111.11-92.01-22.57-12.15-31.25-98.96-36.46-39.93-57.29-62.5-133.68-79.86-8.68-53.36-228.87-254.23,138.4-70.89-18.9-114.58,65.97-28.04,72.52-102.16,68.11h-62.5l-222.22,236.11h-100.69l-302.08-312.5-111.11,26.04-189.24-36.46-253.47-19.1-62.5-105.9,24.31-112.85-36.46-39.93-19.1-137.15-79.86-39.93h-90.28l-178.82-128.47-13.89-97.22-62.5-83.33h-57.29l-74.65-65.97v-109.38l131.94-166.67-118.06-50.35-50.35,10.42-128.47,145.83,36.46,34.72,20.83,163.19,206.6,201.39,36.46,131.94-24.31,222.22,201.39,336.81-92.01,173.61-45.14,24.31-123.26,277.78-62.5,32.99-83.33,116.32-152.78,104.17h-88.54l-300.35,85.07-328.12-15.62-97.22-50.35-36.46-69.44-196.18,34.72,29.51,100.69-86.81,52.08-13.89,62.5-36.46,8.68-45.14,97.22-67.71,3.47,46.87,149.31,85.07,59.03-24.31,72.92,29.51,203.12,163.19-10.42,32.99-36.46,46.88,65.97,57.29,6.94,67.71-46.87-3.47,83.33,50.35,72.92-123.26,232.64-38.19,12.15v38.19l111.11,85.07,46.88,149.31,98.96,67.71,76.39-13.89,93.75-140.63,105.9,97.22,50.35,20.83-5.21,50.35-86.81,32.99v85.07l97.22,57.29v60.76l92.01-17.36,95.49,154.51h170.14l81.6-109.38,93.75-142.36,109.38,6.94,69.44,20.83,215.28-24.31,52.08-62.5,112.85,20.83,74.65-41.67,102.43-102.43,71.18-13.89,62.5,39.93,282.99-428.72h57.29l26.04-19.2s86.81,20.83,92.01,19.1c5.21-1.74,163.19-100.69,163.19-100.69l26.04-52.08,345.49-298.61h112.85l88.54-32.99,79.86,3.47,53.82-22.57,114.58,36.46,284.72-26.04h57.29l222.22-310.76,116.32-29.51,71.18-109.38,79.86-399.31h53.82l107.64-72.92,13.89-31.25,78.12-43.4,105.9-22.57,227.43,69.44,88.54,15.63,1.74-24.31,76.39-3.47,67.71-64.24,138.89,177.08,24.31-24.31h55.56l24.31-152.78-364.58-505.21-324.65,133.68Z"/>
  </g>
  <g id="Retem">
    <polygon id="Retem_Alnothe" data-name="Retem Alnothe" class="cls-5" points="6824.22 8385.68 6975.26 8424.74 7301.65 8576.64 7301.65 8926.82 7732.2 9342.88 7664.5 9730.3 7464.84 10050.61 7464.84 10279.78 7353.73 10401.31 6345.92 10238.05 6317.27 9837.07 6253.04 9722.49 6251.3 9540.19 6195.75 9432.56 6242.62 9342.28 6284.29 9040.19 6306.86 8877 6673.18 8661.72 6824.22 8385.68"/>
    <polygon id="Rwh_Maqed" data-name="Rwh Maqed" class="cls-5" points="10586.37 10105.3 11322.48 10133.08 11766.93 10660.85 11766.93 11320.58 11322.48 11910.85 10586.37 11910.85 10235.24 11756.59 10114.15 11501.13 10121.09 10695.58 10586.37 10105.3"/>
    <path id="North_Retem" data-name="North Retem" class="cls-5" d="m8864.15,7660.85l138.89-20.83,208.15-100.3,649.49-39.46,142.36-140.62,274.31,6.94s31.25,31.25,55.56,45.14c24.31,13.89,152.78-17.36,152.78-17.36l135.42,203.99,319.44,159.72,270.83-20.83,125-125,534.72-83.33-222.22-773.44,187.5-236.11v-673.61l-90.28-104.17,24.31-407.12-83.33-151.91-342.01-93.75-404.51,412.33,361.11,555.56-93.75,458.33-447.92-83.33,20.83-250-145.83-256.94h-590.28l-493.06,166.67-548.61-89.41h-375.87l-111.98,54.69,432.29,555.56-45.65,205.89-259.91,547.58-107.64,36.41,107.64,210.12,222.22,48.61Z"/>
    <polyline id="South_Retem" data-name="South Retem" class="cls-5" points="10714.84 9425.61 9523.87 9591.41 9398.87 10035.85 9044.7 10028.91 8940.54 9577.52 8454.43 9306.69 8044.7 9408.25 7732.2 9342.88 7664.5 9730.3 7464.84 10050.61 7464.84 10279.78 7353.73 10401.31 6345.92 10238.05 6530.82 10567.97 6530.82 10821.44 6492.62 10904.78 6499.57 10991.58 6315.54 11186.03 6352 11512.42 6579.43 11745.06 6798.18 11703.39 7697.48 11848.35 8759.98 11723.35 9850.26 11820.58 10235.24 11756.59 10114.15 11501.13 10121.09 10695.58 10586.37 10105.3 10652.34 9765.89 10714.84 9425.61"/>
    <polygon id="West_Retem" data-name="West Retem" class="cls-5" points="7161.42 8515.89 7301.65 8576.64 7933.59 8348.35 8239.15 7973.35 8405.82 7445.58 8641.93 7365.72 8780.82 7084.47 8901.83 6818.13 8947.48 6612.24 8515.19 6056.69 7586.37 6091.41 7315.54 6410.85 6770.4 6278.04 6666.23 6429.08 6770.4 6762.42 6610.68 6995.06 6975.26 7500.26 6950.95 7653.04 6975.26 8109.64 6824.22 8385.68 6975.26 8424.74 7161.42 8515.89"/>
    <polygon id="Central_Retem" data-name="Central Retem" class="cls-5" points="11647.8 7563.71 11732.2 7883.08 11072.48 8230.3 10780.82 8313.63 10746.09 8785.85 10714.84 9425.61 9523.87 9591.41 9408.92 9323.33 9094.92 9323.33 8940.54 9577.52 8454.43 9306.69 8044.7 9408.25 7732.2 9342.88 7523.87 9146.97 7301.65 8926.82 7301.65 8576.64 7933.59 8348.35 8239.15 7973.35 8405.82 7445.58 8534.29 7402.12 8641.93 7612.24 8864.15 7660.85 9003.04 7640.02 9211.18 7539.72 9860.68 7500.26 10003.04 7359.64 10277.34 7366.58 10332.9 7411.72 10485.68 7394.36 10621.09 7598.35 10940.54 7758.08 11211.37 7737.24 11336.37 7612.24 11647.8 7563.71"/>
    <polygon id="Retem_City" data-name="Retem City" class="cls-5" points="9094.92 9323.33 9402.92 9323.33 9523.87 9591.41 9398.87 10035.85 9044.7 10028.91 8940.54 9577.52 9094.92 9323.33"/>
  </g>
  <g id="Kvaris">
    <polygon id="Belugana_Ruins" data-name="Belugana Ruins" class="cls-2" points="4700.95 908.25 4683.59 1349.22 4749.57 1512.42 4812.07 1540.19 4812.07 1640.89 4794.7 1786.72 4766.93 1852.69 4812.07 2206.86 4843.32 2262.42 4763.45 2439.5 4791.23 2689.5 4746.09 2894.36 4878.04 3349.22 5009.98 3446.44 5096.79 3561.03 5218.32 3613.11 5249.57 3779.78 5409.29 3880.47 5596.79 3779.78 5676.65 3880.47 5628.04 3967.28 5707.9 4199.92 5819.01 4248.53 6325.95 3710.33 6325.95 3269.36 6360.68 2925.61 6332.9 2717.28 6322.48 2474.22 6169.7 2210.33 6200.95 1502 6000 1203.39 5805.12 1151.31 5402.34 1008.94 5187.07 849.22 4697.48 849.22 4700.95 908.25"/>
    <polygon id="Rayjord_Gorge" data-name="Rayjord Gorge" class="cls-2" points="4315.54 585.33 4315.54 849.22 4069.01 1043.67 3971.79 1776.31 3971.79 2061.03 4124.57 2081.86 4280.82 2050.61 4315.54 2120.06 4086.37 2265.89 4082.9 2408.25 4166.23 2488.11 4284.29 2661.72 4357.2 2804.08 4312.07 2870.06 4444.01 2995.06 4516.93 3130.47 4655.82 3491.58 4596.79 3727.69 4787.76 3897.83 4836.37 4085.33 5058.59 4005.47 4985.68 3915.19 5100.26 3731.17 5249.57 3779.78 5218.32 3613.11 5096.79 3561.03 5009.98 3446.44 4878.04 3349.22 4746.09 2894.36 4791.23 2689.5 4763.45 2439.5 4843.32 2262.42 4812.07 2206.86 4766.93 1852.69 4794.7 1786.72 4812.07 1640.89 4812.07 1540.19 4749.57 1512.42 4683.59 1349.22 4700.95 908.25 4697.48 849.22 4503.04 776.31 4315.54 585.33"/>
    <polygon id="Kvaris_Camp" data-name="Kvaris Camp" class="cls-2" points="4082.9 2408.25 3985.68 2661.72 4079.43 2856.17 4169.7 2859.64 4266.93 3002 4121.09 3272.83 4121.09 3449.92 4023.87 3574.92 4115.02 3776.31 4284.29 3817.97 4492.62 3616.58 4527.34 3453.39 4600.96 3348.95 4516.93 3130.47 4444.01 2995.06 4312.07 2870.06 4357.2 2804.08 4284.29 2661.72 4166.23 2488.11 4082.9 2408.25"/>
    <polygon id="North_Kvaris" data-name="North Kvaris" class="cls-2" points="2437.07 92.28 1884.98 61.03 1454.43 92.28 1096.79 172.14 787.76 189.5 492.62 366.58 266.93 630.47 124.57 877 124.57 1144.36 155.82 1519.36 103.73 1946.44 145.4 2283.25 103.73 2526.31 173.18 2692.97 221.79 2918.67 1048.18 2918.67 1180.12 3047.14 1364.15 3054.08 1475.26 3186.03 1655.82 2984.64 1954.43 3151.31 2122.83 3022.83 2079.43 2968.64 2249.57 2929.08 2343.32 2738.11 2437.07 2692.97 2763.45 2436.03 2680.12 2206.86 2687.07 2071.44 2971.79 1897.83 3023.87 1595.75 2687.07 1272.83 2527.34 1293.67 2437.07 1067.97 2437.07 92.28"/>
    <polygon id="South_Kvaris" data-name="South Kvaris" class="cls-2" points="2596.79 3585.33 2520.4 3873.53 2596.79 3960.33 2558.59 4137.42 2631.51 4283.25 2819.01 4317.97 2768.66 4192.97 2919.7 4248.53 3023.87 4203.39 3235.68 4352.69 3376.3 4877 3081.16 4925.61 2791.23 5064.5 2871.09 5137.42 3305.12 5123.53 3565.54 5029.78 3624.57 5071.44 3520.4 5196.44 3506.51 5286.72 3194.01 5359.64 3023.87 5446.44 3055.12 5592.28 3183.59 5676.48 3489.15 5606.17 3759.98 5562.76 4086.37 5456.86 4270.4 5408.25 4412.76 5425.61 4725.26 5335.33 4836.37 5352.69 4997.83 5217.28 5402.34 5252 5537.76 5047.14 5537.76 4866.58 5430.12 4752 5631.51 4533.25 5819.01 4248.53 5707.9 4199.92 5628.04 3967.28 5676.65 3880.47 5596.79 3779.78 5409.29 3880.47 5249.57 3779.78 5100.26 3731.17 4985.68 3915.19 5058.59 4005.47 4836.37 4085.33 4787.76 3897.83 4596.79 3727.69 4655.82 3491.58 4600.96 3348.95 4527.34 3453.39 4492.62 3616.58 4284.29 3817.97 4115.02 3776.31 4023.87 3574.92 3940.54 3585.33 3923.18 3717.28 3707.9 3706.86 3572.48 3797.14 3228.73 3661.72 3079.43 3692.97 2930.12 3564.5 2596.79 3585.33"/>
    <polygon id="West_Kvaris" data-name="West Kvaris" class="cls-2" points="2343.32 2738.11 2249.57 2929.08 2079.43 2968.64 2122.83 3022.83 1954.43 3151.31 1655.82 2984.64 1475.26 3186.03 1364.15 3054.08 1180.12 3047.14 1048.18 2918.67 221.79 2918.67 294.7 3186.03 256.51 3429.08 360.68 3679.08 259.98 3797.14 239.15 4248.53 305.12 4536.72 266.93 4713.81 419.7 4838.81 551.65 5047.14 759.98 5130.47 947.48 5515.89 1416.23 5491.58 1524.31 5331.86 1596.79 5286.72 1707.9 5380.47 1996.09 5363.11 2103.73 5311.03 2391.93 5397.83 2520.4 5540.19 2690.54 5522.83 2860.68 5609.64 3055.12 5592.28 3023.87 5446.44 3194.01 5359.64 3506.51 5286.72 3520.4 5196.44 3624.57 5071.44 3565.54 5029.78 3305.12 5123.53 2871.09 5137.42 2791.23 5064.5 3081.16 4925.61 3376.3 4877 3235.68 4352.69 3023.87 4203.39 2919.7 4248.53 2768.66 4192.97 2819.01 4317.97 2631.51 4283.25 2558.59 4137.42 2596.79 3960.33 2520.4 3873.53 2596.79 3585.33 2565.54 3432.56 2666.23 3210.33 2468.32 3002 2513.45 2887.42 2437.07 2692.97 2343.32 2738.11"/>
    <polygon id="Central_Kvaris" data-name="Central Kvaris" class="cls-2" points="4207.9 529.78 3864.15 140.89 3669.7 74.92 3239.15 74.92 3020.4 127 2759.98 44.1 2437.07 92.28 2437.07 1067.97 2527.34 1293.67 2687.07 1272.83 3023.87 1595.75 2971.79 1897.83 2687.07 2071.44 2680.12 2206.86 2763.45 2436.03 2437.07 2692.97 2513.45 2887.42 2468.32 3002 2666.23 3210.33 2565.54 3432.56 2596.79 3585.33 2930.12 3564.5 3079.43 3692.97 3228.73 3661.72 3572.48 3797.14 3707.9 3706.86 3923.18 3717.28 3940.54 3585.33 4023.87 3574.92 4121.09 3449.92 4121.09 3272.83 4266.93 3002 4169.7 2859.64 4079.43 2856.17 3985.68 2661.72 4082.9 2408.25 4086.37 2265.89 4315.54 2120.06 4280.82 2050.61 4124.57 2081.86 3971.79 2061.03 3971.79 1776.31 4069.01 1043.67 4315.54 849.22 4315.54 585.33 4207.9 529.78"/>
  </g>
  <g id="Stia">
    <polygon id="Stia_Outskirts" data-name="Stia Outskirts" class="cls-1" points="8270.92 4343.33 8358.92 4512.72 8310.92 4583.33 8030.92 4639.33 7854.92 4583.33 7779.08 4359.33 8270.92 4343.33"/>
    <polygon id="Stia_Camp" data-name="Stia Camp" class="cls-1" points="7046.92 5010.68 6824.22 4815.33 6862.92 4512.72 6718.92 4343.33 6534.92 4151.31 6610.68 3817.97 6824.22 3743.33 7046.92 3663.33 7118.92 3431.33 7494.92 3487.33 7902.92 3186.03 8318.92 3735.33 8318.92 4023.33 8430.92 4248.53 8270.92 4343.33 7779.08 4359.33 7854.92 4583.33 8030.92 4639.33 8310.92 4583.33 8430.92 4807.33 8430.92 5010.68 8342.92 5263.33 8078.92 5399.33 7732.2 5143.33 7046.92 5010.68"/>
    <polygon id="Mediola_Outer_2" data-name="Mediola Outer 2" class="cls-6" points="8430.92 4248.53 9318.92 3575.33 9338.57 3108.25 9172.92 3127.33 8858.92 2903.33 8890.92 2371.33 9350.92 2087.33 9215.81 1899.33 9177.94 849.22 8238.92 1391.33 8278.92 1759.33 7870.92 2127.33 8069 2727.33 7557.92 2992.33 7575.25 3120 7902.92 3186.03 8318.92 3735.33 8318.92 4023.33 8430.92 4248.53"/>
    <polygon id="Dext_Base" data-name="Dext Base" class="cls-6" points="9318.92 3575.33 9338.57 3108.25 9554.92 3083.33 9834.92 2795.33 9834.92 2283.33 10395.41 2019.43 10602.92 2167.33 11082.92 2635.33 10542.92 3575.33 9946.92 3699.33 9506.92 3791.33 9318.92 3575.33"/>
    <polygon id="Mediola_Outer_1" data-name="Mediola Outer 1" class="cls-6" points="9350.92 2087.33 8890.92 2371.33 8858.92 2903.33 9172.92 3127.33 9554.92 3083.33 9834.92 2795.33 9834.92 2283.33 10395.41 2019.43 10642.92 1711.33 10278.92 1339.33 9914.92 1283.33 9178.44 849.22 9215.81 1899.33 9350.92 2087.33"/>
  </g>
</svg>