<svg xmlns="http://www.w3.org/2000/svg" xmlns:xlink="http://www.w3.org/1999/xlink" width="2317" height="1889" viewBox="0 0 2317 1889">
  <defs>
    <clipPath id="clip-colorsPrimary">
      <rect width="2317" height="1889"/>
    </clipPath>
  </defs>
  <g id="colorsPrimary" clip-path="url(#clip-colorsPrimary)">
    <g id="Rectangle_1" data-name="Rectangle 1" transform="translate(45 43)" fill="#bfffff" stroke="#43fffe" stroke-width="5">
      <rect width="88" height="88" stroke="none"/>
      <rect x="2.5" y="2.5" width="83" height="83" fill="none"/>
    </g>
    <g id="Rectangle_1-2" data-name="Rectangle 1" transform="translate(178 42)" fill="#ebd0fe" stroke="#dbaafc" stroke-width="5">
      <rect width="88" height="88" stroke="none"/>
      <rect x="2.5" y="2.5" width="83" height="83" fill="none"/>
    </g>
    <g id="Rectangle_1-3" data-name="Rectangle 1" transform="translate(311 43)" fill="#fefec9" stroke="#fefe91" stroke-width="5">
      <rect width="88" height="88" stroke="none"/>
      <rect x="2.5" y="2.5" width="83" height="83" fill="none"/>
    </g>
    <g id="Rectangle_1-4" data-name="Rectangle 1" transform="translate(444 43)" fill="#ffeaea" stroke="#ecc" stroke-width="5">
      <rect width="88" height="88" stroke="none"/>
      <rect x="2.5" y="2.5" width="83" height="83" fill="none"/>
    </g>
    <g id="Rectangle_1-5" data-name="Rectangle 1" transform="translate(577 43)" fill="#ccfcfc" stroke="#aff" stroke-width="5">
      <rect width="88" height="88" stroke="none"/>
      <rect x="2.5" y="2.5" width="83" height="83" fill="none"/>
    </g>
    <g id="Rectangle_1-6" data-name="Rectangle 1" transform="translate(710 43)" fill="#d6fede" stroke="#afb" stroke-width="5">
      <rect width="88" height="88" stroke="none"/>
      <rect x="2.5" y="2.5" width="83" height="83" fill="none"/>
    </g>
    <g id="Rectangle_1-7" data-name="Rectangle 1" transform="translate(843 43)" fill="#ffeaea" stroke="#ecc" stroke-width="5">
      <rect width="88" height="88" stroke="none"/>
      <rect x="2.5" y="2.5" width="83" height="83" fill="none"/>
    </g>
    <g id="Rectangle_1-8" data-name="Rectangle 1" transform="translate(976 43)" fill="#ffeaea" stroke="#ecc" stroke-width="5">
      <rect width="88" height="88" stroke="none"/>
      <rect x="2.5" y="2.5" width="83" height="83" fill="none"/>
    </g>
    <g id="Rectangle_1-9" data-name="Rectangle 1" transform="translate(1109 43)" fill="#ffbdbd" stroke="#ff5050" stroke-width="5">
      <rect width="88" height="88" stroke="none"/>
      <rect x="2.5" y="2.5" width="83" height="83" fill="none"/>
    </g>
    <g id="Rectangle_1-10" data-name="Rectangle 1" transform="translate(1242 43)" fill="#cec6a5" stroke="#ad8a00" stroke-width="5">
      <rect width="88" height="88" stroke="none"/>
      <rect x="2.5" y="2.5" width="83" height="83" fill="none"/>
    </g>
    <g id="Rectangle_1-11" data-name="Rectangle 1" transform="translate(1375 43)" fill="#a8c9a0" stroke="#1c9600" stroke-width="5">
      <rect width="88" height="88" stroke="none"/>
      <rect x="2.5" y="2.5" width="83" height="83" fill="none"/>
    </g>
    <g id="Rectangle_1-12" data-name="Rectangle 1" transform="translate(1508 43)" fill="#d0a1a1" stroke="#960000" stroke-width="5">
      <rect width="88" height="88" stroke="none"/>
      <rect x="2.5" y="2.5" width="83" height="83" fill="none"/>
    </g>
    <g id="Rectangle_1-13" data-name="Rectangle 1" transform="translate(45 319.5)" fill="#a7e7c6" stroke="#27eb84" stroke-width="5">
      <rect width="88" height="88" stroke="none"/>
      <rect x="2.5" y="2.5" width="83" height="83" fill="none"/>
    </g>
    <g id="Rectangle_1-14" data-name="Rectangle 1" transform="translate(178 319.5)" fill="#c3b8d1" stroke="#ac8dd2" stroke-width="5">
      <rect width="88" height="88" stroke="none"/>
      <rect x="2.5" y="2.5" width="83" height="83" fill="none"/>
    </g>
    <g id="Rectangle_1-15" data-name="Rectangle 1" transform="translate(311 319.5)" fill="#b1b0fb" stroke="#5a58f7" stroke-width="5">
      <rect width="88" height="88" stroke="none"/>
      <rect x="2.5" y="2.5" width="83" height="83" fill="none"/>
    </g>
    <g id="Rectangle_1-16" data-name="Rectangle 1" transform="translate(444 319.5)" fill="#c695b9" stroke="#c52098" stroke-width="5">
      <rect width="88" height="88" stroke="none"/>
      <rect x="2.5" y="2.5" width="83" height="83" fill="none"/>
    </g>
    <g id="Rectangle_1-17" data-name="Rectangle 1" transform="translate(577 319.5)" fill="#a7deb5" stroke="#5eda71" stroke-width="5">
      <rect width="88" height="88" stroke="none"/>
      <rect x="2.5" y="2.5" width="83" height="83" fill="none"/>
    </g>
    <g id="Rectangle_1-18" data-name="Rectangle 1" transform="translate(710 319.5)" fill="#ebb1c7" stroke="#ef367d" stroke-width="5">
      <rect width="88" height="88" stroke="none"/>
      <rect x="2.5" y="2.5" width="83" height="83" fill="none"/>
    </g>
    <g id="Rectangle_1-19" data-name="Rectangle 1" transform="translate(843 319.5)" fill="#becbdc" stroke="#93adcc" stroke-width="5">
      <rect width="88" height="88" stroke="none"/>
      <rect x="2.5" y="2.5" width="83" height="83" fill="none"/>
    </g>
    <g id="Rectangle_1-20" data-name="Rectangle 1" transform="translate(976 319.5)" fill="#a19cc5" stroke="#271877" stroke-width="5">
      <rect width="88" height="88" stroke="none"/>
      <rect x="2.5" y="2.5" width="83" height="83" fill="none"/>
    </g>
    <g id="Rectangle_1-21" data-name="Rectangle 1" transform="translate(1109 319.5)" fill="#cff5f6" stroke="#95f9fb" stroke-width="5">
      <rect width="88" height="88" stroke="none"/>
      <rect x="2.5" y="2.5" width="83" height="83" fill="none"/>
    </g>
    <g id="Rectangle_1-22" data-name="Rectangle 1" transform="translate(1242 319.5)" fill="#98a8cc" stroke="#3260c9" stroke-width="5">
      <rect width="88" height="88" stroke="none"/>
      <rect x="2.5" y="2.5" width="83" height="83" fill="none"/>
    </g>
    <g id="Rectangle_1-23" data-name="Rectangle 1" transform="translate(1375 319.5)" fill="#a8837c" stroke="#a52810" stroke-width="5">
      <rect width="88" height="88" stroke="none"/>
      <rect x="2.5" y="2.5" width="83" height="83" fill="none"/>
    </g>
    <g id="Rectangle_1-24" data-name="Rectangle 1" transform="translate(1508 319.5)" fill="#9ed0d2" stroke="#27ced6" stroke-width="5">
      <rect width="88" height="88" stroke="none"/>
      <rect x="2.5" y="2.5" width="83" height="83" fill="none"/>
    </g>
    <g id="Rectangle_1-25" data-name="Rectangle 1" transform="translate(45 566.038)" fill="#ca9390" stroke="#ce4f48" stroke-width="5">
      <rect width="88" height="88" stroke="none"/>
      <rect x="2.5" y="2.5" width="83" height="83" fill="none"/>
    </g>
    <g id="Rectangle_1-26" data-name="Rectangle 1" transform="translate(178 566.038)" fill="#b2d4d9" stroke="#85ccd6" stroke-width="5">
      <rect width="88" height="88" stroke="none"/>
      <rect x="2.5" y="2.5" width="83" height="83" fill="none"/>
    </g>
    <g id="Rectangle_1-27" data-name="Rectangle 1" transform="translate(311 566.038)" fill="#caa5c3" stroke="#a46397" stroke-width="5">
      <rect width="88" height="88" stroke="none"/>
      <rect x="2.5" y="2.5" width="83" height="83" fill="none"/>
    </g>
    <g id="Rectangle_1-28" data-name="Rectangle 1" transform="translate(444 566.038)" fill="#e7dfb0" stroke="#cebb5d" stroke-width="5">
      <rect width="88" height="88" stroke="none"/>
      <rect x="2.5" y="2.5" width="83" height="83" fill="none"/>
    </g>
    <g id="Rectangle_1-29" data-name="Rectangle 1" transform="translate(577 566.038)" fill="#b9d2ad" stroke="#344d29" stroke-width="5">
      <rect width="88" height="88" stroke="none"/>
      <rect x="2.5" y="2.5" width="83" height="83" fill="none"/>
    </g>
    <g id="Rectangle_1-30" data-name="Rectangle 1" transform="translate(710 566.038)" fill="#decbb3" stroke="#deb075" stroke-width="5">
      <rect width="88" height="88" stroke="none"/>
      <rect x="2.5" y="2.5" width="83" height="83" fill="none"/>
    </g>
    <g id="Rectangle_1-31" data-name="Rectangle 1" transform="translate(843 566.038)" fill="#dfdcc5" stroke="#c3c0aa" stroke-width="5">
      <rect width="88" height="88" stroke="none"/>
      <rect x="2.5" y="2.5" width="83" height="83" fill="none"/>
    </g>
    <g id="Rectangle_1-32" data-name="Rectangle 1" transform="translate(976 566.038)" fill="#b1af98" stroke="#7b774a" stroke-width="5">
      <rect width="88" height="88" stroke="none"/>
      <rect x="2.5" y="2.5" width="83" height="83" fill="none"/>
    </g>
    <g id="Rectangle_1-33" data-name="Rectangle 1" transform="translate(1109 566.038)" fill="#ae7f84" stroke="#9f202d" stroke-width="5">
      <rect width="88" height="88" stroke="none"/>
      <rect x="2.5" y="2.5" width="83" height="83" fill="none"/>
    </g>
    <g id="Rectangle_1-34" data-name="Rectangle 1" transform="translate(1242 566.038)" fill="#9ec091" stroke="#4fb629" stroke-width="5">
      <rect width="88" height="88" stroke="none"/>
      <rect x="2.5" y="2.5" width="83" height="83" fill="none"/>
    </g>
    <g id="Rectangle_1-35" data-name="Rectangle 1" transform="translate(1375 566.038)" fill="#b7a5c8" stroke="#6b498c" stroke-width="5">
      <rect width="88" height="88" stroke="none"/>
      <rect x="2.5" y="2.5" width="83" height="83" fill="none"/>
    </g>
    <g id="Rectangle_1-36" data-name="Rectangle 1" transform="translate(1508 566.038)" fill="#ddbec6" stroke="#ad969c" stroke-width="5">
      <rect width="88" height="88" stroke="none"/>
      <rect x="2.5" y="2.5" width="83" height="83" fill="none"/>
    </g>
    <g id="Rectangle_1-37" data-name="Rectangle 1" transform="translate(45 818)" fill="#8c92ae" stroke="#1b2b70" stroke-width="5">
      <rect width="88" height="88" stroke="none"/>
      <rect x="2.5" y="2.5" width="83" height="83" fill="none"/>
    </g>
    <g id="Rectangle_1-38" data-name="Rectangle 1" transform="translate(178 818)" fill="#e1d6da" stroke="#eec8d6" stroke-width="5">
      <rect width="88" height="88" stroke="none"/>
      <rect x="2.5" y="2.5" width="83" height="83" fill="none"/>
    </g>
    <g id="Rectangle_1-39" data-name="Rectangle 1" transform="translate(311 818)" fill="#dfa7b4" stroke="#de6681" stroke-width="5">
      <rect width="88" height="88" stroke="none"/>
      <rect x="2.5" y="2.5" width="83" height="83" fill="none"/>
    </g>
    <g id="Rectangle_1-40" data-name="Rectangle 1" transform="translate(444 818)" fill="#b2ceac" stroke="#232e21" stroke-width="5">
      <rect width="88" height="88" stroke="none"/>
      <rect x="2.5" y="2.5" width="83" height="83" fill="none"/>
    </g>
    <g id="Rectangle_1-41" data-name="Rectangle 1" transform="translate(577 818)" fill="#8fa787" stroke="#446a37" stroke-width="5">
      <rect width="88" height="88" stroke="none"/>
      <rect x="2.5" y="2.5" width="83" height="83" fill="none"/>
    </g>
    <g id="Rectangle_1-42" data-name="Rectangle 1" transform="translate(710 818)" fill="#d2b5a8" stroke="#a38172" stroke-width="5">
      <rect width="88" height="88" stroke="none"/>
      <rect x="2.5" y="2.5" width="83" height="83" fill="none"/>
    </g>
    <g id="Rectangle_1-43" data-name="Rectangle 1" transform="translate(843 818)" fill="#bed6bc" stroke="#429e3a" stroke-width="5">
      <rect width="88" height="88" stroke="none"/>
      <rect x="2.5" y="2.5" width="83" height="83" fill="none"/>
    </g>
    <g id="Rectangle_1-44" data-name="Rectangle 1" transform="translate(976 818)" fill="#eae7c3" stroke="#d5cf88" stroke-width="5">
      <rect width="88" height="88" stroke="none"/>
      <rect x="2.5" y="2.5" width="83" height="83" fill="none"/>
    </g>
    <g id="Rectangle_1-45" data-name="Rectangle 1" transform="translate(1109 818)" fill="#bdb2ae" stroke="#3b322e" stroke-width="5">
      <rect width="88" height="88" stroke="none"/>
      <rect x="2.5" y="2.5" width="83" height="83" fill="none"/>
    </g>
    <g id="Rectangle_1-46" data-name="Rectangle 1" transform="translate(1242 818)" fill="#dddabb" stroke="#b0ad86" stroke-width="5">
      <rect width="88" height="88" stroke="none"/>
      <rect x="2.5" y="2.5" width="83" height="83" fill="none"/>
    </g>
    <g id="Rectangle_1-47" data-name="Rectangle 1" transform="translate(1375 818)" fill="#d1beab" stroke="#88735e" stroke-width="5">
      <rect width="88" height="88" stroke="none"/>
      <rect x="2.5" y="2.5" width="83" height="83" fill="none"/>
    </g>
    <g id="Rectangle_1-48" data-name="Rectangle 1" transform="translate(1508 818)" fill="#d4999d" stroke="#bd323b" stroke-width="5">
      <rect width="88" height="88" stroke="none"/>
      <rect x="2.5" y="2.5" width="83" height="83" fill="none"/>
    </g>
    <g id="Rectangle_1-49" data-name="Rectangle 1" transform="translate(45.875 1069.5)" fill="#b8a5c8" stroke="#563d6a" stroke-width="5">
      <rect width="88" height="88" stroke="none"/>
      <rect x="2.5" y="2.5" width="83" height="83" fill="none"/>
    </g>
    <g id="Rectangle_1-50" data-name="Rectangle 1" transform="translate(178.875 1069.5)" fill="#d8dcf2" stroke="#aab2d8" stroke-width="5">
      <rect width="88" height="88" stroke="none"/>
      <rect x="2.5" y="2.5" width="83" height="83" fill="none"/>
    </g>
    <g id="Rectangle_1-51" data-name="Rectangle 1" transform="translate(311.875 1069.5)" fill="#eadeb9" stroke="#e0bd55" stroke-width="5">
      <rect width="88" height="88" stroke="none"/>
      <rect x="2.5" y="2.5" width="83" height="83" fill="none"/>
    </g>
    <g id="Rectangle_1-52" data-name="Rectangle 1" transform="translate(444.875 1069.5)" fill="#d0b1bb" stroke="#b1727e" stroke-width="5">
      <rect width="88" height="88" stroke="none"/>
      <rect x="2.5" y="2.5" width="83" height="83" fill="none"/>
    </g>
    <g id="Rectangle_1-53" data-name="Rectangle 1" transform="translate(577.875 1069.5)" fill="#d6a8a9" stroke="#d37073" stroke-width="5">
      <rect width="88" height="88" stroke="none"/>
      <rect x="2.5" y="2.5" width="83" height="83" fill="none"/>
    </g>
    <g id="Rectangle_1-54" data-name="Rectangle 1" transform="translate(710.875 1069.5)" fill="#c8e1b4" stroke="#89be5f" stroke-width="5">
      <rect width="88" height="88" stroke="none"/>
      <rect x="2.5" y="2.5" width="83" height="83" fill="none"/>
    </g>
    <g id="Rectangle_1-55" data-name="Rectangle 1" transform="translate(843.875 1069.5)" fill="#dbe3ad" stroke="#afc731" stroke-width="5">
      <rect width="88" height="88" stroke="none"/>
      <rect x="2.5" y="2.5" width="83" height="83" fill="none"/>
    </g>
    <g id="Rectangle_1-56" data-name="Rectangle 1" transform="translate(976.875 1069.5)" fill="#fac4a9" stroke="#f78a53" stroke-width="5">
      <rect width="88" height="88" stroke="none"/>
      <rect x="2.5" y="2.5" width="83" height="83" fill="none"/>
    </g>
    <g id="Rectangle_1-57" data-name="Rectangle 1" transform="translate(1109.875 1069.5)" fill="#fadbf3" stroke="#f8beec" stroke-width="5">
      <rect width="88" height="88" stroke="none"/>
      <rect x="2.5" y="2.5" width="83" height="83" fill="none"/>
    </g>
    <g id="Rectangle_1-58" data-name="Rectangle 1" transform="translate(1242.875 1069.5)" fill="#ead2e6" stroke="#be9ab8" stroke-width="5">
      <rect width="88" height="88" stroke="none"/>
      <rect x="2.5" y="2.5" width="83" height="83" fill="none"/>
    </g>
    <g id="Rectangle_1-59" data-name="Rectangle 1" transform="translate(1375.875 1069.5)" fill="#ebc496" stroke="#d88422" stroke-width="5">
      <rect width="88" height="88" stroke="none"/>
      <rect x="2.5" y="2.5" width="83" height="83" fill="none"/>
    </g>
    <g id="Rectangle_1-60" data-name="Rectangle 1" transform="translate(1508.875 1069.5)" fill="#d9c8f1" stroke="#b69add" stroke-width="5">
      <rect width="88" height="88" stroke="none"/>
      <rect x="2.5" y="2.5" width="83" height="83" fill="none"/>
    </g>
    <g id="Rectangle_1-61" data-name="Rectangle 1" transform="translate(1641.875 1069.5)" fill="#bbd3df" stroke="#76badb" stroke-width="5">
      <rect width="88" height="88" stroke="none"/>
      <rect x="2.5" y="2.5" width="83" height="83" fill="none"/>
    </g>
    <g id="Rectangle_1-62" data-name="Rectangle 1" transform="translate(1774.875 1069.5)" fill="#d0e8f3" stroke="#83c2df" stroke-width="5">
      <rect width="88" height="88" stroke="none"/>
      <rect x="2.5" y="2.5" width="83" height="83" fill="none"/>
    </g>
    <g id="Rectangle_1-63" data-name="Rectangle 1" transform="translate(50 1331.5)" fill="#f1eeb3" stroke="#cac655" stroke-width="5">
      <rect width="88" height="88" stroke="none"/>
      <rect x="2.5" y="2.5" width="83" height="83" fill="none"/>
    </g>
    <g id="Rectangle_1-64" data-name="Rectangle 1" transform="translate(183 1331.5)" fill="#dfb1df" stroke="#d28ad3" stroke-width="5">
      <rect width="88" height="88" stroke="none"/>
      <rect x="2.5" y="2.5" width="83" height="83" fill="none"/>
    </g>
    <g id="Rectangle_1-65" data-name="Rectangle 1" transform="translate(316 1331.5)" fill="#f5efcd" stroke="#cfcaab" stroke-width="5">
      <rect width="88" height="88" stroke="none"/>
      <rect x="2.5" y="2.5" width="83" height="83" fill="none"/>
    </g>
    <g id="Rectangle_1-66" data-name="Rectangle 1" transform="translate(449 1331.5)" fill="#9ebad2" stroke="#457cad" stroke-width="5">
      <rect width="88" height="88" stroke="none"/>
      <rect x="2.5" y="2.5" width="83" height="83" fill="none"/>
    </g>
    <g id="Rectangle_1-67" data-name="Rectangle 1" transform="translate(582 1331.5)" fill="#d9aca8" stroke="#c76f66" stroke-width="5">
      <rect width="88" height="88" stroke="none"/>
      <rect x="2.5" y="2.5" width="83" height="83" fill="none"/>
    </g>
    <g id="Rectangle_1-68" data-name="Rectangle 1" transform="translate(715 1331.5)" fill="#d5c2a4" stroke="#b98f4e" stroke-width="5">
      <rect width="88" height="88" stroke="none"/>
      <rect x="2.5" y="2.5" width="83" height="83" fill="none"/>
    </g>
    <g id="Rectangle_1-69" data-name="Rectangle 1" transform="translate(848 1331.5)" fill="#d9d9d7" stroke="#b4b49d" stroke-width="5">
      <rect width="88" height="88" stroke="none"/>
      <rect x="2.5" y="2.5" width="83" height="83" fill="none"/>
    </g>
    <g id="Rectangle_1-70" data-name="Rectangle 1" transform="translate(981 1331.5)" fill="#e5abcd" stroke="#e44fa7" stroke-width="5">
      <rect width="88" height="88" stroke="none"/>
      <rect x="2.5" y="2.5" width="83" height="83" fill="none"/>
    </g>
    <g id="Rectangle_1-71" data-name="Rectangle 1" transform="translate(1114 1331.5)" fill="#afa5c4" stroke="#472d7c" stroke-width="5">
      <rect width="88" height="88" stroke="none"/>
      <rect x="2.5" y="2.5" width="83" height="83" fill="none"/>
    </g>
    <g id="Rectangle_1-72" data-name="Rectangle 1" transform="translate(1247 1331.5)" fill="#b1bed4" stroke="#254e8d" stroke-width="5">
      <rect width="88" height="88" stroke="none"/>
      <rect x="2.5" y="2.5" width="83" height="83" fill="none"/>
    </g>
    <g id="Rectangle_1-73" data-name="Rectangle 1" transform="translate(1380 1331.5)" fill="#c7c8ed" stroke="#474adb" stroke-width="5">
      <rect width="88" height="88" stroke="none"/>
      <rect x="2.5" y="2.5" width="83" height="83" fill="none"/>
    </g>
    <g id="Rectangle_1-74" data-name="Rectangle 1" transform="translate(1513 1331.5)" fill="#c2ead1" stroke="#7dcc9b" stroke-width="5">
      <rect width="88" height="88" stroke="none"/>
      <rect x="2.5" y="2.5" width="83" height="83" fill="none"/>
    </g>
    <g id="Rectangle_1-75" data-name="Rectangle 1" transform="translate(1646 1331.5)" fill="#b6c8de" stroke="#467ec6" stroke-width="5">
      <rect width="88" height="88" stroke="none"/>
      <rect x="2.5" y="2.5" width="83" height="83" fill="none"/>
    </g>
    <g id="Rectangle_1-76" data-name="Rectangle 1" transform="translate(1779 1331.5)" fill="#f3d6cb" stroke="#cba698" stroke-width="5">
      <rect width="88" height="88" stroke="none"/>
      <rect x="2.5" y="2.5" width="83" height="83" fill="none"/>
    </g>
    <g id="Rectangle_1-77" data-name="Rectangle 1" transform="translate(1912 1331.5)" fill="#d4e2a3" stroke="#95a854" stroke-width="5">
      <rect width="88" height="88" stroke="none"/>
      <rect x="2.5" y="2.5" width="83" height="83" fill="none"/>
    </g>
    <g id="Rectangle_1-78" data-name="Rectangle 1" transform="translate(51 1578.5)" fill="#fffdc6" stroke="#fff820" stroke-width="5">
      <rect width="88" height="88" stroke="none"/>
      <rect x="2.5" y="2.5" width="83" height="83" fill="none"/>
    </g>
    <g id="Rectangle_1-79" data-name="Rectangle 1" transform="translate(184 1578.5)" fill="#ffffd1" stroke="#fefe46" stroke-width="5">
      <rect width="88" height="88" stroke="none"/>
      <rect x="2.5" y="2.5" width="83" height="83" fill="none"/>
    </g>
    <g id="Rectangle_1-80" data-name="Rectangle 1" transform="translate(317 1578.5)" fill="#fffbb3" stroke="#eadf2b" stroke-width="5">
      <rect width="88" height="88" stroke="none"/>
      <rect x="2.5" y="2.5" width="83" height="83" fill="none"/>
    </g>
    <g id="Rectangle_1-81" data-name="Rectangle 1" transform="translate(450 1578.5)" fill="#a4dbe3" stroke="#14899b" stroke-width="5">
      <rect width="88" height="88" stroke="none"/>
      <rect x="2.5" y="2.5" width="83" height="83" fill="none"/>
    </g>
    <g id="Rectangle_1-82" data-name="Rectangle 1" transform="translate(583 1578.5)" fill="#e8b8ed" stroke="#8e159b" stroke-width="5">
      <rect width="88" height="88" stroke="none"/>
      <rect x="2.5" y="2.5" width="83" height="83" fill="none"/>
    </g>
    <g id="Rectangle_1-83" data-name="Rectangle 1" transform="translate(716 1578.5)" fill="#efc0b3" stroke="#9b3216" stroke-width="5">
      <rect width="88" height="88" stroke="none"/>
      <rect x="2.5" y="2.5" width="83" height="83" fill="none"/>
    </g>
    <g id="Rectangle_1-84" data-name="Rectangle 1" transform="translate(849 1578.5)" fill="#b7c5d2" stroke="#383a3c" stroke-width="5">
      <rect width="88" height="88" stroke="none"/>
      <rect x="2.5" y="2.5" width="83" height="83" fill="none"/>
    </g>
  </g>
</svg>
