<svg xmlns="http://www.w3.org/2000/svg" xmlns:xlink="http://www.w3.org/1999/xlink" width="2317" height="1889" viewBox="0 0 2317 1889">
  <defs>
    <clipPath id="clip-colorsSecondary">
      <rect width="2317" height="1889"/>
    </clipPath>
  </defs>
  <g id="colorsSecondary" clip-path="url(#clip-colorsSecondary)">
    <rect id="Rectangle_2" data-name="Rectangle 2" width="88" height="17" transform="translate(45 152)" fill="#ecc"/>
    <rect id="Rectangle_3" data-name="Rectangle 3" width="88" height="17" transform="translate(178 152)" fill="#ecc"/>
    <rect id="Rectangle_4" data-name="Rectangle 4" width="88" height="17" transform="translate(311 152)" fill="#ecc"/>
    <rect id="Rectangle_5" data-name="Rectangle 5" width="88" height="17" transform="translate(444 152)" fill="#666"/>
    <rect id="Rectangle_6" data-name="Rectangle 6" width="88" height="17" transform="translate(577 152)" fill="#636363"/>
    <rect id="Rectangle_7" data-name="Rectangle 7" width="88" height="17" transform="translate(710 152)" fill="#636363"/>
    <rect id="Rectangle_8" data-name="Rectangle 8" width="88" height="17" transform="translate(843 152)" fill="#636363"/>
    <rect id="Rectangle_9" data-name="Rectangle 9" width="88" height="17" transform="translate(976 152)" fill="#636363"/>
    <rect id="Rectangle_10" data-name="Rectangle 10" width="88" height="17" transform="translate(1109 152)" fill="#636363"/>
    <rect id="Rectangle_11" data-name="Rectangle 11" width="88" height="17" transform="translate(1242 152)" fill="#636363"/>
    <rect id="Rectangle_12" data-name="Rectangle 12" width="88" height="17" transform="translate(1375 152)" fill="#636363"/>
    <rect id="Rectangle_13" data-name="Rectangle 13" width="88" height="17" transform="translate(1508 152)" fill="#636363"/>
    <rect id="Rectangle_15" data-name="Rectangle 15" width="88" height="17.618" transform="translate(45 415.418)" fill="#28f8e8"/>
    <rect id="Rectangle_16" data-name="Rectangle 16" width="88" height="17.618" transform="translate(178 415.418)" fill="#5a75b9"/>
    <rect id="Rectangle_17" data-name="Rectangle 17" width="88" height="17.618" transform="translate(311 415.418)" fill="#ad47f0"/>
    <rect id="Rectangle_18" data-name="Rectangle 18" width="88" height="17.618" transform="translate(444 415.418)" fill="#64e8e6"/>
    <rect id="Rectangle_19" data-name="Rectangle 19" width="88" height="17.618" transform="translate(577 415.418)" fill="#41ae78"/>
    <rect id="Rectangle_20" data-name="Rectangle 20" width="88" height="17.618" transform="translate(710 415.418)" fill="#fcd9ec"/>
    <rect id="Rectangle_21" data-name="Rectangle 21" width="88" height="17.618" transform="translate(843 415.418)" fill="#e7edf5"/>
    <rect id="Rectangle_22" data-name="Rectangle 22" width="88" height="17.618" transform="translate(976 415.418)" fill="#e16ff7"/>
    <rect id="Rectangle_23" data-name="Rectangle 23" width="88" height="17.618" transform="translate(1109 415.418)" fill="#59a9c8"/>
    <rect id="Rectangle_24" data-name="Rectangle 24" width="88" height="17.618" transform="translate(1242 415.418)" fill="#54edf3"/>
    <rect id="Rectangle_25" data-name="Rectangle 25" width="88" height="17.618" transform="translate(1375 415.418)" fill="#ef6e1c"/>
    <rect id="Rectangle_26" data-name="Rectangle 26" width="88" height="17.618" transform="translate(1508 415.418)" fill="#f9ed8b"/>
    <rect id="Rectangle_28" data-name="Rectangle 28" width="88" height="17.618" transform="translate(45 667.382)" fill="#e6c06b"/>
    <rect id="Rectangle_29" data-name="Rectangle 29" width="88" height="17.618" transform="translate(178 667.382)" fill="#bd6da5"/>
    <rect id="Rectangle_30" data-name="Rectangle 30" width="88" height="17.618" transform="translate(311 667.382)" fill="#eff0a5"/>
    <rect id="Rectangle_31" data-name="Rectangle 31" width="88" height="17.618" transform="translate(444 667.382)" fill="#3c261c"/>
    <rect id="Rectangle_32" data-name="Rectangle 32" width="88" height="17.618" transform="translate(577 667.382)" fill="#21e8fe"/>
    <rect id="Rectangle_33" data-name="Rectangle 33" width="88" height="17.618" transform="translate(710 667.382)" fill="#ffff87"/>
    <rect id="Rectangle_34" data-name="Rectangle 34" width="88" height="17.618" transform="translate(843 667.382)" fill="#841a2c"/>
    <rect id="Rectangle_35" data-name="Rectangle 35" width="88" height="17.618" transform="translate(976 667.382)" fill="#f9b86d"/>
    <rect id="Rectangle_36" data-name="Rectangle 36" width="88" height="17.618" transform="translate(1109 667.382)" fill="#7a415f"/>
    <rect id="Rectangle_37" data-name="Rectangle 37" width="88" height="17.618" transform="translate(1242 667.382)" fill="#6d5ea2"/>
    <rect id="Rectangle_38" data-name="Rectangle 38" width="88" height="17.618" transform="translate(1375 667.382)" fill="#9b4d3a"/>
    <rect id="Rectangle_39" data-name="Rectangle 39" width="88" height="17.618" transform="translate(1508 667.382)" fill="#7371a5"/>
    <rect id="Rectangle_40" data-name="Rectangle 40" width="88" height="17" transform="translate(50 917)" fill="#31c4dd"/>
    <rect id="Rectangle_41" data-name="Rectangle 41" width="88" height="17" transform="translate(183 917)" fill="#83a6a2"/>
    <rect id="Rectangle_42" data-name="Rectangle 42" width="88" height="17" transform="translate(316 917)" fill="#9a2d97"/>
    <rect id="Rectangle_43" data-name="Rectangle 43" width="88" height="17" transform="translate(449 917)" fill="#7f984d"/>
    <rect id="Rectangle_44" data-name="Rectangle 44" width="88" height="17" transform="translate(582 917)" fill="#4a9683"/>
    <rect id="Rectangle_45" data-name="Rectangle 45" width="88" height="17" transform="translate(715 917)" fill="#3e4667"/>
    <rect id="Rectangle_46" data-name="Rectangle 46" width="88" height="17" transform="translate(848 917)" fill="#dbdc3a"/>
    <rect id="Rectangle_47" data-name="Rectangle 47" width="88" height="17" transform="translate(981 917)" fill="#9555f3"/>
    <rect id="Rectangle_48" data-name="Rectangle 48" width="88" height="17" transform="translate(1114 917)" fill="#3bf3cc"/>
    <rect id="Rectangle_49" data-name="Rectangle 49" width="88" height="17" transform="translate(1241 917)" fill="#f39dab"/>
    <rect id="Rectangle_50" data-name="Rectangle 50" width="88" height="17" transform="translate(1374 917)" fill="#ec6952"/>
    <rect id="Rectangle_51" data-name="Rectangle 51" width="88" height="17" transform="translate(1507 917)" fill="#c4a830"/>
    <rect id="Rectangle_52" data-name="Rectangle 52" width="88" height="17.618" transform="translate(44.125 1165.418)" fill="#e138e8"/>
    <rect id="Rectangle_53" data-name="Rectangle 53" width="88" height="17.618" transform="translate(177.125 1165.418)" fill="#b6f8fa"/>
    <rect id="Rectangle_54" data-name="Rectangle 54" width="88" height="17.618" transform="translate(310.125 1165.418)" fill="#deb94d"/>
    <rect id="Rectangle_55" data-name="Rectangle 55" width="88" height="17.618" transform="translate(443.125 1165.418)" fill="#c7c02d"/>
    <rect id="Rectangle_56" data-name="Rectangle 56" width="88" height="17.618" transform="translate(568.625 1165.418)" fill="#b8c580"/>
    <rect id="Rectangle_57" data-name="Rectangle 57" width="88" height="17.618" transform="translate(709 1168.5)" fill="#9aa8b2"/>
    <rect id="Rectangle_58" data-name="Rectangle 58" width="88" height="17.618" transform="translate(834.625 1165.418)" fill="#c26761"/>
    <rect id="Rectangle_59" data-name="Rectangle 59" width="88" height="17.618" transform="translate(967.625 1165.418)" fill="#8b2430"/>
    <rect id="Rectangle_60" data-name="Rectangle 60" width="88" height="17.618" transform="translate(1100.625 1165.418)" fill="#fac4b1"/>
    <rect id="Rectangle_61" data-name="Rectangle 61" width="88" height="17.618" transform="translate(1233.625 1165.418)" fill="#fe85fb"/>
    <rect id="Rectangle_62" data-name="Rectangle 62" width="88" height="17.618" transform="translate(1366.625 1165.418)" fill="#a8ad44"/>
    <rect id="Rectangle_63" data-name="Rectangle 63" width="88" height="17.618" transform="translate(1499.625 1165.418)" fill="#79ba8d"/>
    <rect id="Rectangle_64" data-name="Rectangle 64" width="88" height="17.618" transform="translate(1632.625 1165.418)" fill="#daa3af"/>
    <rect id="Rectangle_65" data-name="Rectangle 65" width="88" height="17.618" transform="translate(1765.625 1165.418)" fill="#f9c894"/>
    <rect id="Rectangle_67" data-name="Rectangle 67" width="88" height="17.618" transform="translate(50 1427.418)" fill="#5e614a"/>
    <rect id="Rectangle_68" data-name="Rectangle 68" width="88" height="17.618" transform="translate(183 1427.418)" fill="#7067a9"/>
    <rect id="Rectangle_69" data-name="Rectangle 69" width="88" height="17.618" transform="translate(316 1427.418)" fill="#d6aaf2"/>
    <rect id="Rectangle_70" data-name="Rectangle 70" width="88" height="17.618" transform="translate(449 1427.418)" fill="#634e73"/>
    <rect id="Rectangle_71" data-name="Rectangle 71" width="88" height="17.618" transform="translate(582 1427.418)" fill="#61b8ea"/>
    <rect id="Rectangle_72" data-name="Rectangle 72" width="88" height="17.618" transform="translate(715 1427.418)" fill="#da5fae"/>
    <rect id="Rectangle_73" data-name="Rectangle 73" width="88" height="17.618" transform="translate(848 1427.418)" fill="#f7f657"/>
    <rect id="Rectangle_74" data-name="Rectangle 74" width="88" height="17.618" transform="translate(981 1427.418)" fill="#ab77d1"/>
    <rect id="Rectangle_75" data-name="Rectangle 75" width="88" height="17.618" transform="translate(1114 1427.418)" fill="#b73d30"/>
    <rect id="Rectangle_76" data-name="Rectangle 76" width="88" height="17.618" transform="translate(1247 1427.418)" fill="#e0e647"/>
    <rect id="Rectangle_77" data-name="Rectangle 77" width="88" height="17.618" transform="translate(1380 1427.418)" fill="#f289fa"/>
    <rect id="Rectangle_78" data-name="Rectangle 78" width="88" height="17.618" transform="translate(1513 1427.418)" fill="#cad662"/>
    <rect id="Rectangle_79" data-name="Rectangle 79" width="88" height="17.618" transform="translate(1646 1427.418)" fill="#c8654f"/>
    <rect id="Rectangle_80" data-name="Rectangle 80" width="88" height="17.618" transform="translate(1779 1427.418)" fill="#dbb1eb"/>
    <rect id="Rectangle_81" data-name="Rectangle 81" width="88" height="17.618" transform="translate(1912 1427.418)" fill="#a28e9e"/>
    <rect id="Rectangle_82" data-name="Rectangle 82" width="88" height="17.618" transform="translate(49 1681.619)" fill="#ac7821"/>
    <rect id="Rectangle_83" data-name="Rectangle 83" width="88" height="17.618" transform="translate(182 1681.619)" fill="#c18220"/>
    <rect id="Rectangle_84" data-name="Rectangle 84" width="88" height="17.618" transform="translate(315 1681.619)" fill="#8d6d55"/>
    <rect id="Rectangle_85" data-name="Rectangle 85" width="88" height="17.618" transform="translate(448 1681.619)" fill="#069b93"/>
    <rect id="Rectangle_86" data-name="Rectangle 86" width="88" height="17.618" transform="translate(581 1681.619)" fill="#5b059b"/>
    <rect id="Rectangle_87" data-name="Rectangle 87" width="88" height="17.618" transform="translate(714 1681.619)" fill="#9b0515"/>
    <rect id="Rectangle_88" data-name="Rectangle 88" width="88" height="17.618" transform="translate(847 1681.619)" fill="#fff"/>
  </g>
</svg>
