<?xml version="1.0" encoding="UTF-8"?>
<svg id="Layer_2" data-name="Layer 2" xmlns="http://www.w3.org/2000/svg" width="233.71" height="229.38" viewBox="0 0 233.71 229.38">
  <g id="Layer_2-2" data-name="Layer 2">
    <g>
      <g>
        <circle cx="124.71" cy="109" r="102.5" style="fill: none; stroke: #fff; stroke-dasharray: 0 0 3.98 3.98; stroke-linejoin: round; stroke-width: 13px;"/>
        <path d="m202.08,176.23c-18.79,21.61-46.49,35.27-77.37,35.27-56.61,0-102.5-45.89-102.5-102.5S68.1,6.5,124.71,6.5c32.42,0,61.33,15.05,80.11,38.55" style="fill: none; stroke: #fff; stroke-linejoin: round; stroke-width: 13px;"/>
        <polygon points="100.85 122.05 87.78 41.52 148.56 95.95 161.63 176.48 100.85 122.05" style="fill: none; stroke: #fff; stroke-linejoin: round; stroke-width: 6px;"/>
        <path d="m141.03,110.72l-9.23,5.05c-.14.08-.25.19-.32.32l-5.05,9.23c-.31.57-1.12.57-1.43,0l-5.05-9.23c-.08-.14-.19-.25-.32-.32l-9.23-5.05c-.57-.31-.57-1.12,0-1.43l9.23-5.05c.14-.08.25-.19.32-.32l5.05-9.23c.31-.57,1.12-.57,1.43,0l5.05,9.23c.08.14.19.25.32.32l9.23,5.05c.57.31.57,1.12,0,1.43Z" style="fill: #fff;"/>
      </g>
      <g>
        <path d="m87,215.46l-8.88,12.12c-.14.19-.37.31-.61.31H11.61c-.23,0-.45-.11-.59-.29l-9.36-12.08c-.19-.25-.21-.6-.04-.86l15.92-24.98c.07-.11.11-.23.12-.35l3.31-50.36c0-.1,0-.21-.04-.31l-3.34-9.15s-.04-.1-.07-.14l-9.23-14.73c-.31-.5.05-1.15.64-1.15h31.69c.67,0,1-.81.53-1.28l-12.66-12.66c-.29-.29-.29-.77,0-1.06l15.54-15.54c.29-.29.77-.29,1.06,0l15.54,15.54c.29.29.29.77,0,1.06l-12.66,12.66c-.47.47-.14,1.28.53,1.28h31.26c.58,0,.94.62.65,1.13l-8.5,14.76s-.04.08-.06.13l-3.16,9.14c-.04.11-.05.22-.04.33l6,50.5c.01.09.03.17.07.24l12.36,24.97c.12.25.1.55-.07.78Z" style="fill: #b5dbae; stroke: #58595b; stroke-miterlimit: 10; stroke-width: 3px;"/>
        <path d="m86.7,213.06l.61,1.05c.29.51.27,1.13-.06,1.62l-.39.58-85.12-.03-.47-.73c-.23-.36-.23-.82,0-1.18l.86-1.34h10.79s15.97-27.26,15.97-27.26v-40.56c0-.81.56-1.56,1.36-1.68,1.02-.16,1.88.62,1.88,1.6v41.52l-15.45,26.39h26.78s0-67.81,0-67.81c0-.81.55-1.56,1.34-1.7,1.01-.17,1.9.62,1.9,1.6v67.92h27.65s-16.28-25.83-16.28-25.83v-42c0-.81.56-1.56,1.36-1.68,1.02-.16,1.88.62,1.88,1.6v41.15l16.87,26.78h8.5Z" style="fill: #58595b;"/>
        <path d="m69.24,140.59l-48.77-.33v-.93c0-.35-.05-.7-.16-1.04l-.42-1.28,49.63.33-.26.83c-.13.41-.17.85-.13,1.28l.11,1.13Z" style="fill: #58595b;"/>
        <path d="m71.59,131.11l-53.57-.13c-.14,0-.26-.07-.33-.19l-1.37-2.49c-.14-.25.04-.56.33-.56l55.96.13c.27,0,.45.27.35.52l-1.02,2.49c-.06.14-.2.23-.35.23Z" style="fill: #58595b;"/>
        <path d="m44.62,84.9l14.13,14.13-14.13,14.13-14.13-14.13,14.13-14.13m0-2.34c-.3,0-.6.12-.83.35l-15.29,15.29c-.46.46-.46,1.21,0,1.67l15.29,15.29c.23.23.53.35.83.35s.6-.12.83-.35l15.29-15.29c.46-.46.46-1.21,0-1.67l-15.29-15.29c-.23-.23-.53-.35-.83-.35h0Z" style="fill: #58595b;"/>
      </g>
    </g>
  </g>
</svg>