<?xml version="1.0" encoding="UTF-8"?>
<svg id="Layer_2" data-name="Layer 2" xmlns="http://www.w3.org/2000/svg" viewBox="0 0 31.83 25.23">
  <g>
    <polygon points="3.18 17.27 16.08 11.05 28.7 17.32 16.08 23.58 3.18 17.27" style="fill: #fff;"/>
    <path d="m16.07,12.72l9.26,4.6-9.25,4.59-9.47-4.63,9.46-4.56m.02-3.32s-.06,0-.09.02L.11,17.08c-.15.07-.15.29,0,.36l15.89,7.78s.06.02.09.02.06,0,.09-.02l15.54-7.71c.15-.07.15-.28,0-.36l-15.54-7.72s-.06-.02-.09-.02h0Z" style="fill: #52a5d6;"/>
  </g>
  <g>
    <polygon points="3.18 7.86 16.08 1.65 28.7 7.91 16.08 14.18 3.18 7.86" style="fill: #115d94;"/>
    <path d="m16.07,3.32l9.26,4.6-9.25,4.59L6.61,7.87l9.46-4.56m.02-3.32s-.06,0-.09.02L.11,7.67c-.15.07-.15.29,0,.36l15.89,7.78s.06.02.09.02.06,0,.09-.02l15.54-7.71c.15-.07.15-.28,0-.36L16.17.02s-.06-.02-.09-.02h0Z" style="fill: #115d94;"/>
  </g>
</svg>